<svg xmlns="http://www.w3.org/2000/svg" width="45.807" height="45.808">
  <path data-name="warning-svgrepo-com (2)"
    d="M39.1 6.708A22.9 22.9 0 106.708 39.1 22.9 22.9 0 0039.1 6.708zm-19.587.575a1.858 1.858 0 011.346-.572H25a1.867 1.867 0 011.864 1.945l-.684 15.486a2 2 0 01-1.974 1.909H21.6a2 2 0 01-1.97-1.911l-.639-15.49a1.858 1.858 0 01.522-1.366zm3.441 32.4a4.22 4.22 0 01-4.212-4.411A4.224 4.224 0 0122.9 30.81a4.132 4.132 0 014.163 4.46 4.084 4.084 0 01-4.11 4.41z"
    fill="#ce092f" />
</svg>